<?xml version="1.0" encoding="UTF-8"?>
<svg id="example-identicon-98-svg" xmlns="http://www.w3.org/2000/svg" width="128" height="128" viewbox="0 0 128 128">
	<g>
		<rect x="0" y="0" width="25" height="25" fill="none"/>
		<rect x="25" y="0" width="25" height="25" fill="none"/>
		<rect x="50" y="0" width="25" height="25" fill="none"/>
		<rect x="75" y="0" width="25" height="25" fill="none"/>
		<rect x="100" y="0" width="25" height="25" fill="none"/>
		<rect x="0" y="25" width="25" height="25" fill="#22b100"/>
		<rect x="25" y="25" width="25" height="25" fill="none"/>
		<rect x="50" y="25" width="25" height="25" fill="none"/>
		<rect x="75" y="25" width="25" height="25" fill="none"/>
		<rect x="100" y="25" width="25" height="25" fill="#22b100"/>
		<rect x="0" y="50" width="25" height="25" fill="#22b100"/>
		<rect x="25" y="50" width="25" height="25" fill="none"/>
		<rect x="50" y="50" width="25" height="25" fill="none"/>
		<rect x="75" y="50" width="25" height="25" fill="none"/>
		<rect x="100" y="50" width="25" height="25" fill="#22b100"/>
		<rect x="0" y="75" width="25" height="25" fill="none"/>
		<rect x="25" y="75" width="25" height="25" fill="none"/>
		<rect x="50" y="75" width="25" height="25" fill="none"/>
		<rect x="75" y="75" width="25" height="25" fill="none"/>
		<rect x="100" y="75" width="25" height="25" fill="none"/>
		<rect x="0" y="100" width="25" height="25" fill="none"/>
		<rect x="25" y="100" width="25" height="25" fill="none"/>
		<rect x="50" y="100" width="25" height="25" fill="none"/>
		<rect x="75" y="100" width="25" height="25" fill="none"/>
		<rect x="100" y="100" width="25" height="25" fill="none"/>
	</g>
</svg>